%TF.GenerationSoftware,KiCad,Pcbnew,7.0.10*%
%TF.CreationDate,2024-10-13T16:46:52+02:00*%
%TF.ProjectId,Luz solar,4c757a20-736f-46c6-9172-2e6b69636164,rev?*%
%TF.SameCoordinates,Original*%
%TF.FileFunction,Copper,L1,Top*%
%TF.FilePolarity,Positive*%
%FSLAX46Y46*%
G04 Gerber Fmt 4.6, Leading zero omitted, Abs format (unit mm)*
G04 Created by KiCad (PCBNEW 7.0.10) date 2024-10-13 16:46:52*
%MOMM*%
%LPD*%
G01*
G04 APERTURE LIST*
G04 Aperture macros list*
%AMRoundRect*
0 Rectangle with rounded corners*
0 $1 Rounding radius*
0 $2 $3 $4 $5 $6 $7 $8 $9 X,Y pos of 4 corners*
0 Add a 4 corners polygon primitive as box body*
4,1,4,$2,$3,$4,$5,$6,$7,$8,$9,$2,$3,0*
0 Add four circle primitives for the rounded corners*
1,1,$1+$1,$2,$3*
1,1,$1+$1,$4,$5*
1,1,$1+$1,$6,$7*
1,1,$1+$1,$8,$9*
0 Add four rect primitives between the rounded corners*
20,1,$1+$1,$2,$3,$4,$5,0*
20,1,$1+$1,$4,$5,$6,$7,0*
20,1,$1+$1,$6,$7,$8,$9,0*
20,1,$1+$1,$8,$9,$2,$3,0*%
%AMFreePoly0*
4,1,19,0.500000,-0.750000,0.000000,-0.750000,0.000000,-0.744911,-0.071157,-0.744911,-0.207708,-0.704816,-0.327430,-0.627875,-0.420627,-0.520320,-0.479746,-0.390866,-0.500000,-0.250000,-0.500000,0.250000,-0.479746,0.390866,-0.420627,0.520320,-0.327430,0.627875,-0.207708,0.704816,-0.071157,0.744911,0.000000,0.744911,0.000000,0.750000,0.500000,0.750000,0.500000,-0.750000,0.500000,-0.750000,
$1*%
%AMFreePoly1*
4,1,19,0.000000,0.744911,0.071157,0.744911,0.207708,0.704816,0.327430,0.627875,0.420627,0.520320,0.479746,0.390866,0.500000,0.250000,0.500000,-0.250000,0.479746,-0.390866,0.420627,-0.520320,0.327430,-0.627875,0.207708,-0.704816,0.071157,-0.744911,0.000000,-0.744911,0.000000,-0.750000,-0.500000,-0.750000,-0.500000,0.750000,0.000000,0.750000,0.000000,0.744911,0.000000,0.744911,
$1*%
G04 Aperture macros list end*
%TA.AperFunction,SMDPad,CuDef*%
%ADD10R,0.600000X1.400000*%
%TD*%
%TA.AperFunction,SMDPad,CuDef*%
%ADD11RoundRect,0.250000X-0.625000X0.400000X-0.625000X-0.400000X0.625000X-0.400000X0.625000X0.400000X0*%
%TD*%
%TA.AperFunction,SMDPad,CuDef*%
%ADD12R,1.560000X0.650000*%
%TD*%
%TA.AperFunction,SMDPad,CuDef*%
%ADD13R,2.000000X3.800000*%
%TD*%
%TA.AperFunction,SMDPad,CuDef*%
%ADD14R,2.000000X1.500000*%
%TD*%
%TA.AperFunction,SMDPad,CuDef*%
%ADD15RoundRect,0.250000X0.400000X0.625000X-0.400000X0.625000X-0.400000X-0.625000X0.400000X-0.625000X0*%
%TD*%
%TA.AperFunction,SMDPad,CuDef*%
%ADD16RoundRect,0.250000X0.625000X-0.400000X0.625000X0.400000X-0.625000X0.400000X-0.625000X-0.400000X0*%
%TD*%
%TA.AperFunction,SMDPad,CuDef*%
%ADD17R,3.500000X2.700000*%
%TD*%
%TA.AperFunction,SMDPad,CuDef*%
%ADD18C,5.700000*%
%TD*%
%TA.AperFunction,SMDPad,CuDef*%
%ADD19RoundRect,0.250000X0.650000X-0.325000X0.650000X0.325000X-0.650000X0.325000X-0.650000X-0.325000X0*%
%TD*%
%TA.AperFunction,SMDPad,CuDef*%
%ADD20RoundRect,0.250000X-0.325000X-0.650000X0.325000X-0.650000X0.325000X0.650000X-0.325000X0.650000X0*%
%TD*%
%TA.AperFunction,SMDPad,CuDef*%
%ADD21RoundRect,0.150000X-0.150000X0.587500X-0.150000X-0.587500X0.150000X-0.587500X0.150000X0.587500X0*%
%TD*%
%TA.AperFunction,SMDPad,CuDef*%
%ADD22R,1.210000X0.590000*%
%TD*%
%TA.AperFunction,SMDPad,CuDef*%
%ADD23FreePoly0,270.000000*%
%TD*%
%TA.AperFunction,SMDPad,CuDef*%
%ADD24FreePoly1,270.000000*%
%TD*%
%TA.AperFunction,SMDPad,CuDef*%
%ADD25R,2.000000X2.000000*%
%TD*%
%TA.AperFunction,Conductor*%
%ADD26C,0.400000*%
%TD*%
G04 APERTURE END LIST*
D10*
%TO.P,U1,1,TEMP*%
%TO.N,GND*%
X154432000Y-96934000D03*
%TO.P,U1,2,ISET*%
%TO.N,Net-(U1-ISET)*%
X155702000Y-96934000D03*
%TO.P,U1,3,GND*%
%TO.N,GND*%
X156972000Y-96934000D03*
%TO.P,U1,4,VIN*%
%TO.N,/+Vin*%
X158242000Y-96934000D03*
%TO.P,U1,5,BAT*%
%TO.N,/+Bat*%
X158242000Y-91534000D03*
%TO.P,U1,6,~{DONE}*%
%TO.N,unconnected-(U1-~{DONE}-Pad6)*%
X156972000Y-91534000D03*
%TO.P,U1,7,~{CHRG}*%
%TO.N,/{slash}CHRG*%
X155702000Y-91534000D03*
%TO.P,U1,8,FB*%
%TO.N,/+Bat*%
X154432000Y-91534000D03*
%TD*%
D11*
%TO.P,R3,1*%
%TO.N,GND*%
X125857000Y-85699000D03*
%TO.P,R3,2*%
%TO.N,/LED2*%
X125857000Y-88799000D03*
%TD*%
D12*
%TO.P,U4,1,S1*%
%TO.N,/-Bat*%
X106650000Y-90100000D03*
%TO.P,U4,2,D1/D2*%
%TO.N,unconnected-(U4-D1{slash}D2-Pad2)*%
X106650000Y-91050000D03*
%TO.P,U4,3,S2*%
%TO.N,GND*%
X106650000Y-92000000D03*
%TO.P,U4,4,G2*%
%TO.N,Net-(U3-OC)*%
X109350000Y-92000000D03*
%TO.P,U4,5,NC*%
%TO.N,unconnected-(U4-NC-Pad5)*%
X109350000Y-91050000D03*
%TO.P,U4,6,G1*%
%TO.N,Net-(U3-OD)*%
X109350000Y-90100000D03*
%TD*%
D13*
%TO.P,TP4,1,1*%
%TO.N,/-Bat*%
X103000000Y-91000000D03*
%TD*%
D14*
%TO.P,U2,1,GND*%
%TO.N,GND*%
X150343000Y-89295000D03*
%TO.P,U2,2,VO*%
%TO.N,/LED1*%
X150343000Y-86995000D03*
D13*
X144043000Y-86995000D03*
D14*
%TO.P,U2,3,VI*%
%TO.N,/LED*%
X150343000Y-84695000D03*
%TD*%
D15*
%TO.P,R4,1*%
%TO.N,Net-(U3-CS)*%
X112675000Y-94107000D03*
%TO.P,R4,2*%
%TO.N,GND*%
X109575000Y-94107000D03*
%TD*%
D16*
%TO.P,R1,1*%
%TO.N,/+Vin*%
X152146000Y-95377000D03*
%TO.P,R1,2*%
%TO.N,/{slash}CHRG*%
X152146000Y-92277000D03*
%TD*%
D17*
%TO.P,D1,1,K*%
%TO.N,/LED2*%
X126150000Y-92350000D03*
%TO.P,D1,2,A*%
%TO.N,/LED1*%
X138850000Y-89650000D03*
D18*
%TO.P,D1,3*%
%TO.N,N/C*%
X132500000Y-91000000D03*
%TD*%
D16*
%TO.P,R5,1*%
%TO.N,Net-(U3-VCC)*%
X118618000Y-91059000D03*
%TO.P,R5,2*%
%TO.N,/+Bat*%
X118618000Y-87959000D03*
%TD*%
D19*
%TO.P,C3,1*%
%TO.N,Net-(U3-VCC)*%
X116205000Y-91137000D03*
%TO.P,C3,2*%
%TO.N,/-Bat*%
X116205000Y-88187000D03*
%TD*%
D20*
%TO.P,C1,1*%
%TO.N,/+Vin*%
X160196000Y-96901000D03*
%TO.P,C1,2*%
%TO.N,GND*%
X163146000Y-96901000D03*
%TD*%
D19*
%TO.P,C2,1*%
%TO.N,/+Bat*%
X161036000Y-86614000D03*
%TO.P,C2,2*%
%TO.N,GND*%
X161036000Y-83664000D03*
%TD*%
D15*
%TO.P,R2,1*%
%TO.N,Net-(U1-ISET)*%
X152426000Y-97663000D03*
%TO.P,R2,2*%
%TO.N,GND*%
X149326000Y-97663000D03*
%TD*%
D21*
%TO.P,Q1,1,D*%
%TO.N,/+Bat*%
X156779000Y-86517000D03*
%TO.P,Q1,2,G*%
%TO.N,/{slash}CHRG*%
X154879000Y-86517000D03*
%TO.P,Q1,3,S*%
%TO.N,/LED*%
X155829000Y-88392000D03*
%TD*%
D22*
%TO.P,U3,1,OD*%
%TO.N,Net-(U3-OD)*%
X111394000Y-90109000D03*
%TO.P,U3,2,CS*%
%TO.N,Net-(U3-CS)*%
X111394000Y-91059000D03*
%TO.P,U3,3,OC*%
%TO.N,Net-(U3-OC)*%
X111394000Y-92009000D03*
%TO.P,U3,4,TD*%
%TO.N,unconnected-(U3-TD-Pad4)*%
X113904000Y-92009000D03*
%TO.P,U3,5,VCC*%
%TO.N,Net-(U3-VCC)*%
X113904000Y-91059000D03*
%TO.P,U3,6,GND*%
%TO.N,/-Bat*%
X113904000Y-90109000D03*
%TD*%
D13*
%TO.P,TP3,1,1*%
%TO.N,/+Bat*%
X162000000Y-91000000D03*
%TD*%
D23*
%TO.P,JP1,1,A*%
%TO.N,GND*%
X123317000Y-87346000D03*
D24*
%TO.P,JP1,2,B*%
%TO.N,/LED2*%
X123317000Y-88646000D03*
%TD*%
D25*
%TO.P,TP1,1,1*%
%TO.N,/+Vin*%
X145161000Y-95885000D03*
%TD*%
%TO.P,TP2,1,1*%
%TO.N,GND*%
X140589000Y-95885000D03*
%TD*%
D26*
%TO.N,/+Bat*%
X156779000Y-84897000D02*
X155067000Y-83185000D01*
X118618000Y-85217000D02*
X120650000Y-83185000D01*
X156779000Y-86517000D02*
X156779000Y-84897000D01*
X155067000Y-83185000D02*
X120650000Y-83185000D01*
X118618000Y-87959000D02*
X118618000Y-85217000D01*
%TO.N,Net-(U3-VCC)*%
X118413000Y-91059000D02*
X118491000Y-91137000D01*
X116078000Y-91059000D02*
X118413000Y-91059000D01*
X116078000Y-91059000D02*
X113904000Y-91059000D01*
%TO.N,/{slash}CHRG*%
X155702000Y-92075000D02*
X154940000Y-92837000D01*
X152146000Y-90678000D02*
X154879000Y-87945000D01*
X154940000Y-92837000D02*
X152706000Y-92837000D01*
X154879000Y-87945000D02*
X154879000Y-86517000D01*
X152146000Y-92277000D02*
X152146000Y-90678000D01*
X155702000Y-91534000D02*
X155702000Y-92075000D01*
X152706000Y-92837000D02*
X152146000Y-92277000D01*
%TO.N,Net-(U1-ISET)*%
X155702000Y-96139000D02*
X155321000Y-95758000D01*
X155702000Y-96934000D02*
X155702000Y-96139000D01*
X155321000Y-95758000D02*
X153797000Y-95758000D01*
X153797000Y-95758000D02*
X152426000Y-97129000D01*
X152426000Y-97129000D02*
X152426000Y-97663000D01*
%TO.N,Net-(U3-CS)*%
X112395000Y-91059000D02*
X112675000Y-91339000D01*
X112675000Y-91339000D02*
X112675000Y-94107000D01*
X111394000Y-91059000D02*
X112395000Y-91059000D01*
%TO.N,Net-(U3-OD)*%
X109359000Y-90109000D02*
X109350000Y-90100000D01*
X111394000Y-90109000D02*
X109359000Y-90109000D01*
%TO.N,Net-(U3-OC)*%
X109359000Y-92009000D02*
X109350000Y-92000000D01*
X111394000Y-92009000D02*
X109359000Y-92009000D01*
%TD*%
%TA.AperFunction,Conductor*%
%TO.N,/-Bat*%
G36*
X117053838Y-88156954D02*
G01*
X117134620Y-88210930D01*
X117188596Y-88291712D01*
X117207550Y-88387000D01*
X117207206Y-88400087D01*
X117132178Y-89825587D01*
X117108242Y-89919748D01*
X117050094Y-89997580D01*
X116966587Y-90047236D01*
X116883522Y-90061500D01*
X115504993Y-90061500D01*
X115402199Y-90072001D01*
X115235667Y-90127185D01*
X115086343Y-90219288D01*
X115034550Y-90271081D01*
X114953768Y-90325057D01*
X114858480Y-90344010D01*
X114768160Y-90326043D01*
X114768017Y-90326428D01*
X114765643Y-90325542D01*
X114763192Y-90325055D01*
X114759144Y-90323118D01*
X114616481Y-90269908D01*
X114556873Y-90263500D01*
X113251134Y-90263500D01*
X113251130Y-90263500D01*
X113251128Y-90263501D01*
X113238314Y-90264878D01*
X113191519Y-90269908D01*
X113191515Y-90269909D01*
X113056667Y-90320204D01*
X112952945Y-90397851D01*
X112865304Y-90439782D01*
X112768288Y-90444983D01*
X112715426Y-90431335D01*
X112670222Y-90414191D01*
X112656338Y-90408441D01*
X112646306Y-90403925D01*
X112567193Y-90347536D01*
X112515681Y-90265161D01*
X112499499Y-90176863D01*
X112499499Y-89766134D01*
X112499499Y-89766128D01*
X112493091Y-89706517D01*
X112442796Y-89571669D01*
X112356546Y-89456454D01*
X112241331Y-89370204D01*
X112156368Y-89338515D01*
X112106481Y-89319908D01*
X112046873Y-89313500D01*
X110741134Y-89313500D01*
X110741130Y-89313500D01*
X110741128Y-89313501D01*
X110728314Y-89314878D01*
X110681519Y-89319908D01*
X110681511Y-89319910D01*
X110592064Y-89353272D01*
X110496160Y-89368812D01*
X110401609Y-89346468D01*
X110385720Y-89338515D01*
X110372332Y-89331204D01*
X110237481Y-89280908D01*
X110177873Y-89274500D01*
X108522134Y-89274500D01*
X108522130Y-89274500D01*
X108522128Y-89274501D01*
X108509314Y-89275878D01*
X108462519Y-89280908D01*
X108462515Y-89280909D01*
X108327670Y-89331203D01*
X108212455Y-89417453D01*
X108212453Y-89417455D01*
X108126204Y-89532669D01*
X108075908Y-89667518D01*
X108069500Y-89727123D01*
X108069500Y-90081082D01*
X108050546Y-90176370D01*
X107996570Y-90257152D01*
X107915788Y-90311128D01*
X107820500Y-90330082D01*
X107725212Y-90311128D01*
X107680365Y-90285590D01*
X107672334Y-90281205D01*
X107537481Y-90230908D01*
X107477873Y-90224500D01*
X105822134Y-90224500D01*
X105822130Y-90224500D01*
X105822128Y-90224501D01*
X105809314Y-90225878D01*
X105762519Y-90230908D01*
X105762515Y-90230909D01*
X105627670Y-90281203D01*
X105512455Y-90367453D01*
X105512453Y-90367455D01*
X105426204Y-90482669D01*
X105375908Y-90617518D01*
X105369500Y-90677123D01*
X105369500Y-91422865D01*
X105369501Y-91422869D01*
X105377574Y-91497971D01*
X105373541Y-91498404D01*
X105375383Y-91551795D01*
X105377574Y-91552031D01*
X105369500Y-91627123D01*
X105369500Y-92372865D01*
X105369501Y-92372869D01*
X105375908Y-92432480D01*
X105375908Y-92432481D01*
X105375909Y-92432483D01*
X105394301Y-92481796D01*
X105410000Y-92568809D01*
X105410000Y-93096000D01*
X105391046Y-93191288D01*
X105337070Y-93272070D01*
X105256288Y-93326046D01*
X105161000Y-93345000D01*
X101861442Y-93345000D01*
X101766154Y-93326046D01*
X101685372Y-93272070D01*
X101631396Y-93191288D01*
X101612442Y-93096000D01*
X101612738Y-93083868D01*
X101637863Y-92568809D01*
X101842445Y-88374865D01*
X101866019Y-88280617D01*
X101923867Y-88202561D01*
X102007182Y-88152585D01*
X102091149Y-88138000D01*
X116958550Y-88138000D01*
X117053838Y-88156954D01*
G37*
%TD.AperFunction*%
%TD*%
%TA.AperFunction,Conductor*%
%TO.N,/LED2*%
G36*
X128110141Y-88537954D02*
G01*
X128190923Y-88591930D01*
X128244899Y-88672712D01*
X128263853Y-88768000D01*
X128263779Y-88774072D01*
X128225071Y-90361042D01*
X128203799Y-90455839D01*
X128147869Y-90535280D01*
X128065795Y-90587271D01*
X127970073Y-90603896D01*
X127937195Y-90600905D01*
X127931484Y-90600000D01*
X126550001Y-90600000D01*
X126550000Y-90600001D01*
X126550000Y-92501000D01*
X126531046Y-92596288D01*
X126477070Y-92677070D01*
X126396288Y-92731046D01*
X126301000Y-92750000D01*
X124000002Y-92750000D01*
X124000001Y-92750001D01*
X124000001Y-93477000D01*
X123981047Y-93572288D01*
X123927071Y-93653070D01*
X123846289Y-93707046D01*
X123751001Y-93726000D01*
X122175147Y-93726000D01*
X122079859Y-93707046D01*
X121999077Y-93653070D01*
X121945101Y-93572288D01*
X121926147Y-93477000D01*
X121926221Y-93470929D01*
X121945584Y-92677070D01*
X121963317Y-91949999D01*
X124000000Y-91949999D01*
X124000001Y-91950000D01*
X125749999Y-91950000D01*
X125750000Y-91949999D01*
X125750000Y-90600001D01*
X125749999Y-90600000D01*
X124368519Y-90600000D01*
X124274854Y-90614834D01*
X124161954Y-90672359D01*
X124072358Y-90761955D01*
X124014836Y-90874849D01*
X124014835Y-90874853D01*
X124000000Y-90968518D01*
X124000000Y-91949999D01*
X121963317Y-91949999D01*
X122028813Y-89264650D01*
X124582000Y-89264650D01*
X124584899Y-89301486D01*
X124584901Y-89301498D01*
X124630716Y-89459195D01*
X124714315Y-89600553D01*
X124830446Y-89716684D01*
X124971804Y-89800283D01*
X125129501Y-89846098D01*
X125129513Y-89846100D01*
X125166349Y-89848999D01*
X125166360Y-89849000D01*
X125456999Y-89849000D01*
X125457000Y-89848999D01*
X126257000Y-89848999D01*
X126257001Y-89849000D01*
X126547640Y-89849000D01*
X126547650Y-89848999D01*
X126584486Y-89846100D01*
X126584498Y-89846098D01*
X126742195Y-89800283D01*
X126883553Y-89716684D01*
X126999684Y-89600553D01*
X127083283Y-89459195D01*
X127129098Y-89301498D01*
X127129100Y-89301486D01*
X127131999Y-89264650D01*
X127132000Y-89264639D01*
X127132000Y-89199001D01*
X127131999Y-89199000D01*
X126257001Y-89199000D01*
X126257000Y-89199001D01*
X126257000Y-89848999D01*
X125457000Y-89848999D01*
X125457000Y-89199001D01*
X125456999Y-89199000D01*
X124582001Y-89199000D01*
X124582000Y-89199001D01*
X124582000Y-89264650D01*
X122028813Y-89264650D01*
X122041075Y-88761929D01*
X122062347Y-88667131D01*
X122118277Y-88587690D01*
X122200350Y-88535699D01*
X122290001Y-88519000D01*
X124538999Y-88519000D01*
X127175001Y-88519000D01*
X128014853Y-88519000D01*
X128110141Y-88537954D01*
G37*
%TD.AperFunction*%
%TD*%
%TA.AperFunction,Conductor*%
%TO.N,/LED*%
G36*
X154851834Y-83704454D02*
G01*
X154932616Y-83758430D01*
X156205570Y-85031384D01*
X156259546Y-85112166D01*
X156278500Y-85207454D01*
X156278500Y-85563827D01*
X156259546Y-85659115D01*
X156229846Y-85711686D01*
X156226209Y-85716612D01*
X156226206Y-85716619D01*
X156181353Y-85844804D01*
X156178500Y-85875226D01*
X156178500Y-87158773D01*
X156181353Y-87189195D01*
X156181353Y-87189197D01*
X156181354Y-87189199D01*
X156226207Y-87317382D01*
X156278499Y-87388236D01*
X156288345Y-87401576D01*
X156329678Y-87489499D01*
X156337000Y-87549437D01*
X156337000Y-89032000D01*
X156318046Y-89127288D01*
X156264070Y-89208070D01*
X156183288Y-89262046D01*
X156088000Y-89281000D01*
X155570000Y-89281000D01*
X155474712Y-89262046D01*
X155393930Y-89208070D01*
X155339954Y-89127288D01*
X155321000Y-89032000D01*
X155321000Y-88237069D01*
X155336692Y-88150073D01*
X155338581Y-88145007D01*
X155345385Y-88128576D01*
X155364165Y-88087457D01*
X155364166Y-88087445D01*
X155369182Y-88070367D01*
X155369458Y-88070448D01*
X155369585Y-88069949D01*
X155369305Y-88069888D01*
X155373090Y-88052488D01*
X155373090Y-88052485D01*
X155373091Y-88052483D01*
X155376314Y-88007405D01*
X155378216Y-87989731D01*
X155379499Y-87980808D01*
X155379500Y-87980797D01*
X155379500Y-87971766D01*
X155380135Y-87954000D01*
X155380350Y-87951000D01*
X155383359Y-87908927D01*
X155383356Y-87908917D01*
X155382088Y-87891165D01*
X155382373Y-87891144D01*
X155379500Y-87864418D01*
X155379500Y-87470172D01*
X155398454Y-87374884D01*
X155428156Y-87322310D01*
X155428345Y-87322052D01*
X155431793Y-87317382D01*
X155476646Y-87189199D01*
X155479500Y-87158766D01*
X155479500Y-85875234D01*
X155476646Y-85844801D01*
X155431793Y-85716618D01*
X155351150Y-85607350D01*
X155241882Y-85526707D01*
X155241880Y-85526706D01*
X155175940Y-85503633D01*
X155113699Y-85481854D01*
X155113697Y-85481853D01*
X155113695Y-85481853D01*
X155083273Y-85479000D01*
X155083266Y-85479000D01*
X154674734Y-85479000D01*
X154674726Y-85479000D01*
X154644304Y-85481853D01*
X154516119Y-85526706D01*
X154516112Y-85526710D01*
X154485443Y-85549345D01*
X154397519Y-85590679D01*
X154337583Y-85598000D01*
X149664482Y-85598000D01*
X149569194Y-85579046D01*
X149509478Y-85542547D01*
X149509432Y-85542613D01*
X149508401Y-85541889D01*
X149503211Y-85538717D01*
X149500020Y-85536004D01*
X149500013Y-85535999D01*
X149500012Y-85535998D01*
X149453914Y-85503631D01*
X149386823Y-85433364D01*
X149351728Y-85342770D01*
X149348001Y-85299849D01*
X149348001Y-84958003D01*
X149348001Y-84958000D01*
X149342131Y-84898400D01*
X149323177Y-84803112D01*
X149321721Y-84796209D01*
X149277562Y-84692987D01*
X149277561Y-84692985D01*
X149277560Y-84692982D01*
X149266964Y-84677124D01*
X149229784Y-84587365D01*
X149225000Y-84538788D01*
X149225000Y-83934500D01*
X149243954Y-83839212D01*
X149297930Y-83758430D01*
X149378712Y-83704454D01*
X149474000Y-83685500D01*
X154756546Y-83685500D01*
X154851834Y-83704454D01*
G37*
%TD.AperFunction*%
%TD*%
%TA.AperFunction,Conductor*%
%TO.N,/LED1*%
G36*
X142815160Y-84727954D02*
G01*
X142895942Y-84781930D01*
X142949918Y-84862712D01*
X142968872Y-84958000D01*
X142949918Y-85053287D01*
X142948803Y-85055977D01*
X142943000Y-85085153D01*
X142943000Y-86244999D01*
X142943001Y-86245000D01*
X145142998Y-86245000D01*
X145142999Y-86244999D01*
X145142999Y-85085152D01*
X145137198Y-85055982D01*
X145136082Y-85053288D01*
X145117128Y-84958000D01*
X145136082Y-84862712D01*
X145190059Y-84781930D01*
X145270840Y-84727954D01*
X145366128Y-84709000D01*
X148793501Y-84709000D01*
X148888789Y-84727954D01*
X148969571Y-84781930D01*
X149023547Y-84862712D01*
X149042501Y-84958000D01*
X149042501Y-85489869D01*
X149045415Y-85514993D01*
X149090792Y-85617762D01*
X149090793Y-85617763D01*
X149090794Y-85617765D01*
X149170235Y-85697206D01*
X149244950Y-85730195D01*
X149324462Y-85786023D01*
X149376558Y-85868030D01*
X149393307Y-85963730D01*
X149372157Y-86058555D01*
X149316329Y-86138068D01*
X149282713Y-86165013D01*
X149270907Y-86172901D01*
X149270904Y-86172904D01*
X149248802Y-86205982D01*
X149243000Y-86235153D01*
X149243000Y-86244999D01*
X149243001Y-86245000D01*
X150844000Y-86245000D01*
X150939288Y-86263954D01*
X151020070Y-86317930D01*
X151074046Y-86398712D01*
X151093000Y-86494000D01*
X151093000Y-87496000D01*
X151074046Y-87591288D01*
X151020070Y-87672070D01*
X150939288Y-87726046D01*
X150844000Y-87745000D01*
X149243002Y-87745000D01*
X149243001Y-87745001D01*
X149243001Y-87754847D01*
X149248801Y-87784015D01*
X149270904Y-87817095D01*
X149270906Y-87817097D01*
X149282708Y-87824983D01*
X149351408Y-87893681D01*
X149388588Y-87983441D01*
X149388589Y-88080596D01*
X149351410Y-88170355D01*
X149282712Y-88239055D01*
X149244951Y-88259803D01*
X149170236Y-88292793D01*
X149090794Y-88372235D01*
X149045414Y-88475011D01*
X149042500Y-88500133D01*
X149042500Y-88651000D01*
X149023546Y-88746288D01*
X148969570Y-88827070D01*
X148888788Y-88881046D01*
X148793500Y-88900000D01*
X145392000Y-88900000D01*
X145296712Y-88881046D01*
X145215930Y-88827070D01*
X145161954Y-88746288D01*
X145143000Y-88651000D01*
X145143000Y-87745001D01*
X145142999Y-87745000D01*
X142943002Y-87745000D01*
X142943001Y-87745001D01*
X142943001Y-88651000D01*
X142924047Y-88746288D01*
X142870071Y-88827070D01*
X142789289Y-88881046D01*
X142694001Y-88900000D01*
X140948999Y-88900000D01*
X140853711Y-88881046D01*
X140772929Y-88827070D01*
X140718953Y-88746288D01*
X140699999Y-88651000D01*
X140699999Y-88290152D01*
X140694198Y-88260984D01*
X140672095Y-88227904D01*
X140639017Y-88205802D01*
X140609846Y-88200000D01*
X139600001Y-88200000D01*
X139600000Y-88200001D01*
X139600000Y-90151000D01*
X139581046Y-90246288D01*
X139527070Y-90327070D01*
X139446288Y-90381046D01*
X139351000Y-90400000D01*
X138349000Y-90400000D01*
X138253712Y-90381046D01*
X138172930Y-90327070D01*
X138118954Y-90246288D01*
X138100000Y-90151000D01*
X138100000Y-88200001D01*
X138099999Y-88200000D01*
X137155000Y-88200000D01*
X137059712Y-88181046D01*
X136978930Y-88127070D01*
X136924954Y-88046288D01*
X136906000Y-87951000D01*
X136906000Y-84958000D01*
X136924954Y-84862712D01*
X136978930Y-84781930D01*
X137059712Y-84727954D01*
X137155000Y-84709000D01*
X142719872Y-84709000D01*
X142815160Y-84727954D01*
G37*
%TD.AperFunction*%
%TD*%
%TA.AperFunction,Conductor*%
%TO.N,GND*%
G36*
X164942539Y-82020185D02*
G01*
X164988294Y-82072989D01*
X164999500Y-82124500D01*
X164999500Y-99875500D01*
X164979815Y-99942539D01*
X164927011Y-99988294D01*
X164875500Y-99999500D01*
X100124500Y-99999500D01*
X100057461Y-99979815D01*
X100011706Y-99927011D01*
X100000500Y-99875500D01*
X100000500Y-97913000D01*
X148176001Y-97913000D01*
X148176001Y-98337986D01*
X148186494Y-98440697D01*
X148241641Y-98607119D01*
X148241643Y-98607124D01*
X148333684Y-98756345D01*
X148457654Y-98880315D01*
X148606875Y-98972356D01*
X148606880Y-98972358D01*
X148773302Y-99027505D01*
X148773309Y-99027506D01*
X148876019Y-99037999D01*
X149075999Y-99037999D01*
X149076000Y-99037998D01*
X149076000Y-97913000D01*
X149576000Y-97913000D01*
X149576000Y-99037999D01*
X149775972Y-99037999D01*
X149775986Y-99037998D01*
X149878697Y-99027505D01*
X150045119Y-98972358D01*
X150045124Y-98972356D01*
X150194345Y-98880315D01*
X150318315Y-98756345D01*
X150410356Y-98607124D01*
X150410358Y-98607119D01*
X150465505Y-98440697D01*
X150465506Y-98440690D01*
X150475999Y-98337986D01*
X150476000Y-98337973D01*
X150476000Y-97913000D01*
X149576000Y-97913000D01*
X149076000Y-97913000D01*
X148176001Y-97913000D01*
X100000500Y-97913000D01*
X100000500Y-96135000D01*
X139089000Y-96135000D01*
X139089000Y-96932844D01*
X139095401Y-96992372D01*
X139095403Y-96992379D01*
X139145645Y-97127086D01*
X139145649Y-97127093D01*
X139231809Y-97242187D01*
X139231812Y-97242190D01*
X139346906Y-97328350D01*
X139346913Y-97328354D01*
X139481620Y-97378596D01*
X139481627Y-97378598D01*
X139541155Y-97384999D01*
X139541172Y-97385000D01*
X140339000Y-97385000D01*
X140339000Y-96135000D01*
X140839000Y-96135000D01*
X140839000Y-97385000D01*
X141636828Y-97385000D01*
X141636844Y-97384999D01*
X141696372Y-97378598D01*
X141696379Y-97378596D01*
X141831086Y-97328354D01*
X141831093Y-97328350D01*
X141946187Y-97242190D01*
X141946190Y-97242187D01*
X142032350Y-97127093D01*
X142032354Y-97127086D01*
X142082596Y-96992379D01*
X142082598Y-96992372D01*
X142088999Y-96932844D01*
X142089000Y-96932827D01*
X142089000Y-96135000D01*
X140839000Y-96135000D01*
X140339000Y-96135000D01*
X139089000Y-96135000D01*
X100000500Y-96135000D01*
X100000500Y-95635000D01*
X139089000Y-95635000D01*
X140339000Y-95635000D01*
X140339000Y-94385000D01*
X140839000Y-94385000D01*
X140839000Y-95635000D01*
X142089000Y-95635000D01*
X142089000Y-94837172D01*
X142088999Y-94837155D01*
X142082598Y-94777627D01*
X142082596Y-94777620D01*
X142032354Y-94642913D01*
X142032350Y-94642906D01*
X141946190Y-94527812D01*
X141946187Y-94527809D01*
X141831093Y-94441649D01*
X141831086Y-94441645D01*
X141696379Y-94391403D01*
X141696372Y-94391401D01*
X141636844Y-94385000D01*
X140839000Y-94385000D01*
X140339000Y-94385000D01*
X139541155Y-94385000D01*
X139481627Y-94391401D01*
X139481620Y-94391403D01*
X139346913Y-94441645D01*
X139346906Y-94441649D01*
X139231812Y-94527809D01*
X139231809Y-94527812D01*
X139145649Y-94642906D01*
X139145645Y-94642913D01*
X139095403Y-94777620D01*
X139095401Y-94777627D01*
X139089000Y-94837155D01*
X139089000Y-95635000D01*
X100000500Y-95635000D01*
X100000500Y-94357000D01*
X108425001Y-94357000D01*
X108425001Y-94781986D01*
X108435494Y-94884697D01*
X108490641Y-95051119D01*
X108490643Y-95051124D01*
X108582684Y-95200345D01*
X108706654Y-95324315D01*
X108855875Y-95416356D01*
X108855880Y-95416358D01*
X109022302Y-95471505D01*
X109022309Y-95471506D01*
X109125019Y-95481999D01*
X109324999Y-95481999D01*
X109325000Y-95481998D01*
X109325000Y-94357000D01*
X109825000Y-94357000D01*
X109825000Y-95481999D01*
X110024972Y-95481999D01*
X110024986Y-95481998D01*
X110127697Y-95471505D01*
X110294119Y-95416358D01*
X110294124Y-95416356D01*
X110443345Y-95324315D01*
X110567315Y-95200345D01*
X110659356Y-95051124D01*
X110659358Y-95051119D01*
X110714505Y-94884697D01*
X110714506Y-94884690D01*
X110724999Y-94781986D01*
X110725000Y-94781973D01*
X110725000Y-94357000D01*
X109825000Y-94357000D01*
X109325000Y-94357000D01*
X108425001Y-94357000D01*
X100000500Y-94357000D01*
X100000500Y-93083666D01*
X101107091Y-93083666D01*
X101116654Y-93194615D01*
X101116656Y-93194627D01*
X101135609Y-93289908D01*
X101135614Y-93289929D01*
X101148988Y-93342327D01*
X101148990Y-93342332D01*
X101148991Y-93342335D01*
X101211086Y-93472126D01*
X101265062Y-93552908D01*
X101297495Y-93596233D01*
X101404534Y-93692380D01*
X101450850Y-93723327D01*
X101485311Y-93746353D01*
X101485316Y-93746356D01*
X101531843Y-93773962D01*
X101531845Y-93773963D01*
X101531847Y-93773963D01*
X101531851Y-93773966D01*
X101667536Y-93821833D01*
X101762824Y-93840787D01*
X101861442Y-93850500D01*
X101861444Y-93850500D01*
X105160998Y-93850500D01*
X105161000Y-93850500D01*
X105259618Y-93840787D01*
X105354906Y-93821833D01*
X105407335Y-93808451D01*
X105537126Y-93746356D01*
X105617908Y-93692380D01*
X105661233Y-93659947D01*
X105757380Y-93552908D01*
X105811356Y-93472126D01*
X105838966Y-93425591D01*
X105886833Y-93289906D01*
X105905787Y-93194618D01*
X105915500Y-93096000D01*
X105915500Y-92949000D01*
X105935185Y-92881961D01*
X105987989Y-92836206D01*
X106039500Y-92825000D01*
X106400000Y-92825000D01*
X106400000Y-91999499D01*
X106419685Y-91932460D01*
X106472489Y-91886705D01*
X106524000Y-91875499D01*
X106776000Y-91875499D01*
X106843039Y-91895184D01*
X106888794Y-91947988D01*
X106900000Y-91999499D01*
X106900000Y-92825000D01*
X107477828Y-92825000D01*
X107477844Y-92824999D01*
X107537372Y-92818598D01*
X107537379Y-92818596D01*
X107672086Y-92768354D01*
X107672093Y-92768350D01*
X107787187Y-92682190D01*
X107787190Y-92682187D01*
X107873350Y-92567093D01*
X107873353Y-92567088D01*
X107883550Y-92539748D01*
X107925420Y-92483813D01*
X107990884Y-92459395D01*
X108059158Y-92474246D01*
X108108564Y-92523650D01*
X108115915Y-92539746D01*
X108126202Y-92567328D01*
X108126206Y-92567335D01*
X108212452Y-92682544D01*
X108212455Y-92682547D01*
X108327664Y-92768793D01*
X108327671Y-92768797D01*
X108372618Y-92785561D01*
X108462517Y-92819091D01*
X108492241Y-92822286D01*
X108556788Y-92849022D01*
X108596638Y-92906414D01*
X108599133Y-92976239D01*
X108584523Y-93010671D01*
X108490645Y-93162871D01*
X108490641Y-93162880D01*
X108435494Y-93329302D01*
X108435493Y-93329309D01*
X108425000Y-93432013D01*
X108425000Y-93857000D01*
X110724999Y-93857000D01*
X110724999Y-93432028D01*
X110724998Y-93432013D01*
X110714505Y-93329302D01*
X110659358Y-93162880D01*
X110659356Y-93162875D01*
X110567315Y-93013654D01*
X110558497Y-93004836D01*
X110525012Y-92943513D01*
X110529996Y-92873821D01*
X110571868Y-92817888D01*
X110637332Y-92793471D01*
X110674695Y-92796479D01*
X110681515Y-92798090D01*
X110681517Y-92798091D01*
X110741127Y-92804500D01*
X111591770Y-92804499D01*
X111658809Y-92824183D01*
X111704564Y-92876987D01*
X111714508Y-92946146D01*
X111686501Y-93007471D01*
X111686766Y-93007681D01*
X111685913Y-93008758D01*
X111685483Y-93009702D01*
X111683389Y-93011951D01*
X111682290Y-93013341D01*
X111682288Y-93013343D01*
X111682288Y-93013344D01*
X111671636Y-93030613D01*
X111590187Y-93162663D01*
X111590185Y-93162668D01*
X111579599Y-93194615D01*
X111535001Y-93329203D01*
X111535001Y-93329204D01*
X111535000Y-93329204D01*
X111524500Y-93431983D01*
X111524500Y-94782001D01*
X111524501Y-94782018D01*
X111535000Y-94884796D01*
X111535001Y-94884799D01*
X111590115Y-95051119D01*
X111590186Y-95051334D01*
X111682288Y-95200656D01*
X111806344Y-95324712D01*
X111955666Y-95416814D01*
X112122203Y-95471999D01*
X112224991Y-95482500D01*
X113125008Y-95482499D01*
X113125016Y-95482498D01*
X113125019Y-95482498D01*
X113181302Y-95476748D01*
X113227797Y-95471999D01*
X113394334Y-95416814D01*
X113543656Y-95324712D01*
X113667712Y-95200656D01*
X113759814Y-95051334D01*
X113814999Y-94884797D01*
X113825500Y-94782009D01*
X113825499Y-93470839D01*
X121420685Y-93470839D01*
X121430360Y-93575618D01*
X121430362Y-93575631D01*
X121449314Y-93670908D01*
X121449319Y-93670929D01*
X121462693Y-93723327D01*
X121462695Y-93723332D01*
X121462696Y-93723335D01*
X121524791Y-93853126D01*
X121578767Y-93933908D01*
X121611200Y-93977233D01*
X121718239Y-94073380D01*
X121778482Y-94113632D01*
X121799016Y-94127353D01*
X121799021Y-94127356D01*
X121845548Y-94154962D01*
X121845550Y-94154963D01*
X121845552Y-94154963D01*
X121845556Y-94154966D01*
X121981241Y-94202833D01*
X122076529Y-94221787D01*
X122175147Y-94231500D01*
X122175149Y-94231500D01*
X123750999Y-94231500D01*
X123751001Y-94231500D01*
X123849619Y-94221787D01*
X123944907Y-94202833D01*
X123997336Y-94189451D01*
X124073693Y-94152919D01*
X124142662Y-94141745D01*
X124170533Y-94148594D01*
X124292517Y-94194091D01*
X124352127Y-94200500D01*
X127947872Y-94200499D01*
X128007483Y-94194091D01*
X128142331Y-94143796D01*
X128257546Y-94057546D01*
X128343796Y-93942331D01*
X128394091Y-93807483D01*
X128400500Y-93747873D01*
X128400499Y-91038997D01*
X128411949Y-91000002D01*
X129144579Y-91000002D01*
X129164248Y-91362782D01*
X129164250Y-91362799D01*
X129223024Y-91721303D01*
X129223030Y-91721329D01*
X129320221Y-92071381D01*
X129320226Y-92071396D01*
X129454700Y-92408901D01*
X129454706Y-92408913D01*
X129624878Y-92729892D01*
X129624881Y-92729897D01*
X129624883Y-92729900D01*
X129696961Y-92836206D01*
X129828772Y-93030613D01*
X130035374Y-93273844D01*
X130063979Y-93307521D01*
X130327746Y-93557375D01*
X130616981Y-93777245D01*
X130928292Y-93964555D01*
X130928294Y-93964556D01*
X130928296Y-93964557D01*
X130928300Y-93964559D01*
X131163501Y-94073374D01*
X131258031Y-94117108D01*
X131602330Y-94233116D01*
X131957153Y-94311218D01*
X132318341Y-94350500D01*
X132318347Y-94350500D01*
X132681653Y-94350500D01*
X132681659Y-94350500D01*
X133042847Y-94311218D01*
X133397670Y-94233116D01*
X133741969Y-94117108D01*
X134071708Y-93964555D01*
X134383019Y-93777245D01*
X134672254Y-93557375D01*
X134936021Y-93307521D01*
X135171227Y-93030614D01*
X135375117Y-92729900D01*
X135545298Y-92408905D01*
X135679775Y-92071391D01*
X135684407Y-92054710D01*
X135747632Y-91826991D01*
X135776973Y-91721316D01*
X135803802Y-91557666D01*
X135835749Y-91362799D01*
X135835751Y-91362782D01*
X135855421Y-91000002D01*
X135855421Y-90999997D01*
X135835751Y-90637217D01*
X135835749Y-90637200D01*
X135776975Y-90278696D01*
X135776974Y-90278695D01*
X135776973Y-90278684D01*
X135757923Y-90210071D01*
X135679778Y-89928618D01*
X135679773Y-89928603D01*
X135545299Y-89591098D01*
X135545298Y-89591095D01*
X135441600Y-89395500D01*
X135375121Y-89270107D01*
X135375119Y-89270104D01*
X135375117Y-89270100D01*
X135171227Y-88969386D01*
X134936021Y-88692479D01*
X134672254Y-88442625D01*
X134672244Y-88442617D01*
X134550710Y-88350230D01*
X134383019Y-88222755D01*
X134071708Y-88035445D01*
X134071707Y-88035444D01*
X134071703Y-88035442D01*
X134071699Y-88035440D01*
X133741979Y-87882896D01*
X133741974Y-87882894D01*
X133741969Y-87882892D01*
X133494023Y-87799349D01*
X133397669Y-87766883D01*
X133042845Y-87688781D01*
X132681660Y-87649500D01*
X132681659Y-87649500D01*
X132318341Y-87649500D01*
X132318339Y-87649500D01*
X131957154Y-87688781D01*
X131602330Y-87766883D01*
X131336178Y-87856560D01*
X131258031Y-87882892D01*
X131258028Y-87882893D01*
X131258020Y-87882896D01*
X130928300Y-88035440D01*
X130928296Y-88035442D01*
X130720182Y-88160661D01*
X130616981Y-88222755D01*
X130549515Y-88274041D01*
X130327755Y-88442617D01*
X130327745Y-88442625D01*
X130063978Y-88692479D01*
X129828772Y-88969386D01*
X129624884Y-89270098D01*
X129624878Y-89270107D01*
X129454706Y-89591086D01*
X129454700Y-89591098D01*
X129320226Y-89928603D01*
X129320221Y-89928618D01*
X129223030Y-90278670D01*
X129223024Y-90278696D01*
X129164250Y-90637200D01*
X129164248Y-90637217D01*
X129144579Y-90999997D01*
X129144579Y-91000002D01*
X128411949Y-91000002D01*
X128420184Y-90971959D01*
X128452630Y-90937949D01*
X128462475Y-90930948D01*
X128561204Y-90826286D01*
X128595793Y-90777157D01*
X128617112Y-90746877D01*
X128617118Y-90746866D01*
X128617134Y-90746845D01*
X128645872Y-90700995D01*
X128697034Y-90566519D01*
X128718306Y-90471722D01*
X128730421Y-90373368D01*
X128739128Y-90016382D01*
X128769128Y-88786457D01*
X128769136Y-88785993D01*
X128769241Y-88780232D01*
X128769315Y-88774160D01*
X128759640Y-88669382D01*
X128740686Y-88574094D01*
X128740680Y-88574070D01*
X128727306Y-88521672D01*
X128727305Y-88521670D01*
X128727304Y-88521665D01*
X128665209Y-88391874D01*
X128611233Y-88311092D01*
X128578800Y-88267767D01*
X128471761Y-88171620D01*
X128431507Y-88144723D01*
X128390983Y-88117646D01*
X128390978Y-88117643D01*
X128344451Y-88090037D01*
X128344449Y-88090036D01*
X128344444Y-88090034D01*
X128274415Y-88065329D01*
X128208757Y-88042166D01*
X128113469Y-88023212D01*
X128034277Y-88015413D01*
X128014853Y-88013500D01*
X128014851Y-88013500D01*
X127195210Y-88013500D01*
X127128171Y-87993815D01*
X127089672Y-87954597D01*
X127074714Y-87930347D01*
X127074711Y-87930343D01*
X126950657Y-87806289D01*
X126950656Y-87806288D01*
X126811770Y-87720623D01*
X126801336Y-87714187D01*
X126801331Y-87714185D01*
X126725940Y-87689203D01*
X126634797Y-87659001D01*
X126634795Y-87659000D01*
X126532010Y-87648500D01*
X125181998Y-87648500D01*
X125181981Y-87648501D01*
X125079203Y-87659000D01*
X125079200Y-87659001D01*
X124912668Y-87714185D01*
X124912663Y-87714187D01*
X124763345Y-87806287D01*
X124677515Y-87892117D01*
X124616191Y-87925601D01*
X124546500Y-87920617D01*
X124490566Y-87878745D01*
X124485528Y-87871489D01*
X124449143Y-87814872D01*
X124340373Y-87720623D01*
X124337021Y-87719092D01*
X124209456Y-87660834D01*
X124102792Y-87645499D01*
X124067000Y-87640353D01*
X123602763Y-87640353D01*
X123531236Y-87640353D01*
X123102764Y-87640353D01*
X123031237Y-87640353D01*
X122567000Y-87640353D01*
X122566997Y-87640353D01*
X122495039Y-87645499D01*
X122495034Y-87645500D01*
X122356949Y-87686045D01*
X122235873Y-87763856D01*
X122141623Y-87872626D01*
X122141622Y-87872628D01*
X122080038Y-88007477D01*
X122034283Y-88060281D01*
X122018018Y-88069093D01*
X121929846Y-88108666D01*
X121929833Y-88108673D01*
X121847764Y-88160661D01*
X121847752Y-88160670D01*
X121803674Y-88192018D01*
X121803666Y-88192025D01*
X121704940Y-88296685D01*
X121649011Y-88376126D01*
X121649008Y-88376130D01*
X121620274Y-88421973D01*
X121620269Y-88421984D01*
X121569112Y-88556451D01*
X121569109Y-88556461D01*
X121547840Y-88651246D01*
X121547839Y-88651249D01*
X121535724Y-88749605D01*
X121523463Y-89252324D01*
X121478264Y-91105499D01*
X121478264Y-91105500D01*
X121457967Y-91937673D01*
X121420871Y-93458543D01*
X121420759Y-93464761D01*
X121420685Y-93470839D01*
X113825499Y-93470839D01*
X113825499Y-93431992D01*
X113818170Y-93360250D01*
X113814999Y-93329203D01*
X113814998Y-93329200D01*
X113801977Y-93289906D01*
X113759814Y-93162666D01*
X113667712Y-93013344D01*
X113667709Y-93013341D01*
X113663234Y-93007681D01*
X113665101Y-93006204D01*
X113637063Y-92954857D01*
X113642047Y-92885165D01*
X113683919Y-92829232D01*
X113749383Y-92804815D01*
X113758229Y-92804499D01*
X114556871Y-92804499D01*
X114556872Y-92804499D01*
X114616483Y-92798091D01*
X114751331Y-92747796D01*
X114866546Y-92661546D01*
X114952796Y-92546331D01*
X115003091Y-92411483D01*
X115009500Y-92351873D01*
X115009499Y-92229486D01*
X115029183Y-92162449D01*
X115081987Y-92116694D01*
X115151145Y-92106750D01*
X115198595Y-92123949D01*
X115235659Y-92146810D01*
X115235660Y-92146810D01*
X115235666Y-92146814D01*
X115402203Y-92201999D01*
X115504991Y-92212500D01*
X116905008Y-92212499D01*
X117007797Y-92201999D01*
X117174334Y-92146814D01*
X117323656Y-92054712D01*
X117337819Y-92040549D01*
X117399142Y-92007064D01*
X117468834Y-92012048D01*
X117513181Y-92040549D01*
X117524344Y-92051712D01*
X117673666Y-92143814D01*
X117840203Y-92198999D01*
X117942991Y-92209500D01*
X119293008Y-92209499D01*
X119395797Y-92198999D01*
X119562334Y-92143814D01*
X119711656Y-92051712D01*
X119835712Y-91927656D01*
X119927814Y-91778334D01*
X119982999Y-91611797D01*
X119993500Y-91509009D01*
X119993499Y-90608992D01*
X119982999Y-90506203D01*
X119927814Y-90339666D01*
X119835712Y-90190344D01*
X119711656Y-90066288D01*
X119562334Y-89974186D01*
X119395797Y-89919001D01*
X119395795Y-89919000D01*
X119293010Y-89908500D01*
X117942998Y-89908500D01*
X117942981Y-89908501D01*
X117840203Y-89919000D01*
X117840196Y-89919002D01*
X117802167Y-89931604D01*
X117732339Y-89934006D01*
X117672297Y-89898274D01*
X117641105Y-89835753D01*
X117639335Y-89807386D01*
X117670880Y-89208036D01*
X117694061Y-89142124D01*
X117749197Y-89099208D01*
X117818783Y-89092913D01*
X117833707Y-89096846D01*
X117840203Y-89098999D01*
X117942991Y-89109500D01*
X119293008Y-89109499D01*
X119395797Y-89098999D01*
X119562334Y-89043814D01*
X119711656Y-88951712D01*
X119835712Y-88827656D01*
X119927814Y-88678334D01*
X119982999Y-88511797D01*
X119993500Y-88409009D01*
X119993499Y-87508992D01*
X119982999Y-87406203D01*
X119927814Y-87239666D01*
X119835712Y-87090344D01*
X119711656Y-86966288D01*
X119562334Y-86874186D01*
X119486322Y-86848998D01*
X119403496Y-86821552D01*
X119346051Y-86781779D01*
X119319228Y-86717263D01*
X119318500Y-86703846D01*
X119318500Y-85949000D01*
X124482001Y-85949000D01*
X124482001Y-86148986D01*
X124492494Y-86251697D01*
X124547641Y-86418119D01*
X124547643Y-86418124D01*
X124639684Y-86567345D01*
X124763654Y-86691315D01*
X124912875Y-86783356D01*
X124912880Y-86783358D01*
X125079302Y-86838505D01*
X125079309Y-86838506D01*
X125182019Y-86848999D01*
X125606999Y-86848999D01*
X125607000Y-86848998D01*
X125607000Y-85949000D01*
X126107000Y-85949000D01*
X126107000Y-86848999D01*
X126531972Y-86848999D01*
X126531986Y-86848998D01*
X126634697Y-86838505D01*
X126801119Y-86783358D01*
X126801124Y-86783356D01*
X126950345Y-86691315D01*
X127074315Y-86567345D01*
X127166356Y-86418124D01*
X127166358Y-86418119D01*
X127221505Y-86251697D01*
X127221506Y-86251690D01*
X127231999Y-86148986D01*
X127232000Y-86148973D01*
X127232000Y-85949000D01*
X126107000Y-85949000D01*
X125607000Y-85949000D01*
X124482001Y-85949000D01*
X119318500Y-85949000D01*
X119318500Y-85558519D01*
X119338185Y-85491480D01*
X119354819Y-85470838D01*
X119376657Y-85449000D01*
X124482000Y-85449000D01*
X125607000Y-85449000D01*
X125607000Y-84549000D01*
X126107000Y-84549000D01*
X126107000Y-85449000D01*
X127231999Y-85449000D01*
X127231999Y-85249028D01*
X127231998Y-85249013D01*
X127221505Y-85146302D01*
X127166358Y-84979880D01*
X127166356Y-84979875D01*
X127074315Y-84830654D01*
X126950345Y-84706684D01*
X126801124Y-84614643D01*
X126801119Y-84614641D01*
X126634697Y-84559494D01*
X126634690Y-84559493D01*
X126531986Y-84549000D01*
X126107000Y-84549000D01*
X125607000Y-84549000D01*
X125182028Y-84549000D01*
X125182012Y-84549001D01*
X125079302Y-84559494D01*
X124912880Y-84614641D01*
X124912875Y-84614643D01*
X124763654Y-84706684D01*
X124639684Y-84830654D01*
X124547643Y-84979875D01*
X124547641Y-84979880D01*
X124492494Y-85146302D01*
X124492493Y-85146309D01*
X124482000Y-85249013D01*
X124482000Y-85449000D01*
X119376657Y-85449000D01*
X120903838Y-83921819D01*
X120965161Y-83888334D01*
X120991519Y-83885500D01*
X148595500Y-83885500D01*
X148662539Y-83905185D01*
X148708294Y-83957989D01*
X148719500Y-84009500D01*
X148719500Y-84079500D01*
X148699815Y-84146539D01*
X148647011Y-84192294D01*
X148595500Y-84203500D01*
X145366128Y-84203500D01*
X145348686Y-84205217D01*
X145267521Y-84213211D01*
X145267511Y-84213212D01*
X145267510Y-84213213D01*
X145236644Y-84219352D01*
X145172215Y-84232168D01*
X145172200Y-84232171D01*
X145119798Y-84245546D01*
X145119792Y-84245548D01*
X144989996Y-84307648D01*
X144909227Y-84361616D01*
X144865896Y-84394052D01*
X144769749Y-84501092D01*
X144769748Y-84501093D01*
X144744159Y-84539391D01*
X144690547Y-84584196D01*
X144641057Y-84594500D01*
X143444944Y-84594500D01*
X143377905Y-84574815D01*
X143341842Y-84539391D01*
X143316252Y-84501092D01*
X143283819Y-84457767D01*
X143176780Y-84361620D01*
X143136526Y-84334723D01*
X143096002Y-84307646D01*
X143095997Y-84307643D01*
X143049470Y-84280037D01*
X143049468Y-84280036D01*
X143049463Y-84280034D01*
X142951711Y-84245549D01*
X142913776Y-84232166D01*
X142818488Y-84213212D01*
X142739296Y-84205413D01*
X142719872Y-84203500D01*
X137155000Y-84203500D01*
X137133453Y-84205622D01*
X137056385Y-84213212D01*
X136961091Y-84232167D01*
X136961070Y-84232172D01*
X136908672Y-84245546D01*
X136908667Y-84245548D01*
X136778873Y-84307644D01*
X136778869Y-84307647D01*
X136698087Y-84361623D01*
X136661259Y-84389193D01*
X136654767Y-84394053D01*
X136654765Y-84394054D01*
X136654764Y-84394056D01*
X136558625Y-84501086D01*
X136558620Y-84501092D01*
X136504646Y-84581869D01*
X136504643Y-84581874D01*
X136477037Y-84628401D01*
X136477036Y-84628403D01*
X136429166Y-84764095D01*
X136429166Y-84764096D01*
X136410212Y-84859383D01*
X136410212Y-84859384D01*
X136402413Y-84938576D01*
X136400500Y-84958000D01*
X136400500Y-87951000D01*
X136403320Y-87979633D01*
X136410212Y-88049614D01*
X136429167Y-88144908D01*
X136429172Y-88144929D01*
X136442546Y-88197327D01*
X136442548Y-88197332D01*
X136442549Y-88197335D01*
X136504644Y-88327126D01*
X136513542Y-88340443D01*
X136558618Y-88407906D01*
X136559444Y-88409009D01*
X136574766Y-88429477D01*
X136599184Y-88494939D01*
X136599500Y-88503788D01*
X136599500Y-91047870D01*
X136599501Y-91047876D01*
X136605908Y-91107483D01*
X136656202Y-91242328D01*
X136656206Y-91242335D01*
X136742452Y-91357544D01*
X136742455Y-91357547D01*
X136857664Y-91443793D01*
X136857671Y-91443797D01*
X136992517Y-91494091D01*
X136992516Y-91494091D01*
X136999444Y-91494835D01*
X137052127Y-91500500D01*
X140647872Y-91500499D01*
X140707483Y-91494091D01*
X140842331Y-91443796D01*
X140957546Y-91357546D01*
X141043796Y-91242331D01*
X141094091Y-91107483D01*
X141100500Y-91047873D01*
X141100499Y-89529499D01*
X141120184Y-89462461D01*
X141172987Y-89416706D01*
X141224499Y-89405500D01*
X142693999Y-89405500D01*
X142694001Y-89405500D01*
X142792619Y-89395787D01*
X142862990Y-89381789D01*
X142930516Y-89387225D01*
X142935517Y-89389091D01*
X142995127Y-89395500D01*
X145090872Y-89395499D01*
X145150483Y-89389091D01*
X145155481Y-89387226D01*
X145223009Y-89381789D01*
X145293382Y-89395787D01*
X145392000Y-89405500D01*
X145392002Y-89405500D01*
X148719000Y-89405500D01*
X148786039Y-89425185D01*
X148831794Y-89477989D01*
X148843000Y-89529500D01*
X148843000Y-90092844D01*
X148849401Y-90152372D01*
X148849403Y-90152379D01*
X148899645Y-90287086D01*
X148899649Y-90287093D01*
X148985809Y-90402187D01*
X148985812Y-90402190D01*
X149100906Y-90488350D01*
X149100913Y-90488354D01*
X149235620Y-90538596D01*
X149235627Y-90538598D01*
X149295155Y-90544999D01*
X149295172Y-90545000D01*
X150093000Y-90545000D01*
X150093000Y-89169000D01*
X150112685Y-89101961D01*
X150165489Y-89056206D01*
X150217000Y-89045000D01*
X151843000Y-89045000D01*
X151843000Y-88497172D01*
X151842999Y-88497155D01*
X151836598Y-88437627D01*
X151836596Y-88437620D01*
X151786354Y-88302913D01*
X151786352Y-88302910D01*
X151724082Y-88219727D01*
X151699665Y-88154262D01*
X151714517Y-88085989D01*
X151724083Y-88071104D01*
X151786796Y-87987331D01*
X151837091Y-87852483D01*
X151843500Y-87792873D01*
X151843499Y-86227499D01*
X151863184Y-86160461D01*
X151915987Y-86114706D01*
X151967499Y-86103500D01*
X152926032Y-86103500D01*
X152993071Y-86123185D01*
X153038826Y-86175989D01*
X153048770Y-86245147D01*
X153047647Y-86251701D01*
X153047212Y-86253885D01*
X153039622Y-86330953D01*
X153037500Y-86352500D01*
X153037500Y-87689203D01*
X153040595Y-87720623D01*
X153047212Y-87787817D01*
X153066167Y-87883111D01*
X153066172Y-87883132D01*
X153079546Y-87935530D01*
X153079548Y-87935535D01*
X153079549Y-87935538D01*
X153141644Y-88065329D01*
X153195620Y-88146111D01*
X153228053Y-88189436D01*
X153335092Y-88285583D01*
X153336954Y-88286827D01*
X153337434Y-88287401D01*
X153338583Y-88288294D01*
X153338388Y-88288544D01*
X153381755Y-88340443D01*
X153390457Y-88409769D01*
X153360297Y-88472794D01*
X153355736Y-88477605D01*
X152054681Y-89778661D01*
X151993358Y-89812146D01*
X151923666Y-89807162D01*
X151867733Y-89765290D01*
X151843316Y-89699826D01*
X151843000Y-89690980D01*
X151843000Y-89545000D01*
X150593000Y-89545000D01*
X150593000Y-90545000D01*
X151319448Y-90545000D01*
X151386487Y-90564685D01*
X151432242Y-90617489D01*
X151443222Y-90661512D01*
X151445274Y-90695432D01*
X151445500Y-90702920D01*
X151445500Y-91021845D01*
X151425815Y-91088884D01*
X151373011Y-91134639D01*
X151360505Y-91139551D01*
X151201666Y-91192186D01*
X151201663Y-91192187D01*
X151052342Y-91284289D01*
X150928289Y-91408342D01*
X150836187Y-91557663D01*
X150836185Y-91557668D01*
X150818249Y-91611795D01*
X150781001Y-91724203D01*
X150781001Y-91724204D01*
X150781000Y-91724204D01*
X150770500Y-91826983D01*
X150770500Y-92727001D01*
X150770501Y-92727019D01*
X150781000Y-92829796D01*
X150781001Y-92829799D01*
X150838458Y-93003189D01*
X150836378Y-93003878D01*
X150845260Y-93062383D01*
X150816735Y-93126164D01*
X150758255Y-93164399D01*
X150722387Y-93169700D01*
X144394000Y-93169700D01*
X144372453Y-93171822D01*
X144295385Y-93179412D01*
X144200091Y-93198367D01*
X144200070Y-93198372D01*
X144147672Y-93211746D01*
X144147667Y-93211748D01*
X144017873Y-93273844D01*
X144017869Y-93273847D01*
X143937087Y-93327823D01*
X143917713Y-93342327D01*
X143893767Y-93360253D01*
X143893765Y-93360254D01*
X143893764Y-93360256D01*
X143797625Y-93467286D01*
X143797620Y-93467292D01*
X143743646Y-93548069D01*
X143743643Y-93548074D01*
X143716037Y-93594601D01*
X143716036Y-93594603D01*
X143668166Y-93730295D01*
X143668166Y-93730296D01*
X143649212Y-93825583D01*
X143649212Y-93825584D01*
X143639500Y-93924202D01*
X143639500Y-94335997D01*
X143649212Y-94434614D01*
X143668167Y-94529908D01*
X143668172Y-94529929D01*
X143681545Y-94582324D01*
X143681551Y-94582340D01*
X143691502Y-94603141D01*
X143702676Y-94672111D01*
X143695826Y-94699983D01*
X143666908Y-94777517D01*
X143660501Y-94837116D01*
X143660500Y-94837135D01*
X143660500Y-96932870D01*
X143660501Y-96932876D01*
X143666908Y-96992483D01*
X143717202Y-97127328D01*
X143717206Y-97127335D01*
X143803452Y-97242544D01*
X143803455Y-97242547D01*
X143918664Y-97328793D01*
X143918671Y-97328797D01*
X144053517Y-97379091D01*
X144053516Y-97379091D01*
X144060444Y-97379835D01*
X144113127Y-97385500D01*
X146208872Y-97385499D01*
X146268483Y-97379091D01*
X146355322Y-97346701D01*
X146425012Y-97341718D01*
X146440835Y-97346279D01*
X146510336Y-97371420D01*
X146510339Y-97371420D01*
X146510344Y-97371422D01*
X146575882Y-97385000D01*
X146605470Y-97391130D01*
X146642877Y-97395114D01*
X146704008Y-97401626D01*
X146704001Y-97401626D01*
X147314844Y-97406475D01*
X147314882Y-97406475D01*
X147314980Y-97406476D01*
X147316945Y-97406488D01*
X147318920Y-97406496D01*
X147320968Y-97406500D01*
X147321063Y-97406500D01*
X148118138Y-97406500D01*
X148140274Y-97413000D01*
X150500789Y-97413000D01*
X150507503Y-97409334D01*
X150533861Y-97406500D01*
X151151500Y-97406500D01*
X151218539Y-97426185D01*
X151264294Y-97478989D01*
X151275500Y-97530500D01*
X151275500Y-98338001D01*
X151275501Y-98338019D01*
X151286000Y-98440796D01*
X151286001Y-98440799D01*
X151341115Y-98607119D01*
X151341186Y-98607334D01*
X151433288Y-98756656D01*
X151557344Y-98880712D01*
X151706666Y-98972814D01*
X151873203Y-99027999D01*
X151975991Y-99038500D01*
X152876008Y-99038499D01*
X152876016Y-99038498D01*
X152876019Y-99038498D01*
X152932302Y-99032748D01*
X152978797Y-99027999D01*
X153145334Y-98972814D01*
X153294656Y-98880712D01*
X153418712Y-98756656D01*
X153510814Y-98607334D01*
X153565999Y-98440797D01*
X153576500Y-98338009D01*
X153576499Y-98090452D01*
X153596183Y-98023416D01*
X153648987Y-97977661D01*
X153718146Y-97967717D01*
X153774810Y-97991188D01*
X153889911Y-98077353D01*
X153889913Y-98077354D01*
X154024620Y-98127596D01*
X154024627Y-98127598D01*
X154084155Y-98133999D01*
X154084172Y-98134000D01*
X154182000Y-98134000D01*
X154182000Y-96808000D01*
X154201685Y-96740961D01*
X154254489Y-96695206D01*
X154306000Y-96684000D01*
X154558000Y-96684000D01*
X154625039Y-96703685D01*
X154670794Y-96756489D01*
X154682000Y-96808000D01*
X154682000Y-98134000D01*
X154779828Y-98134000D01*
X154779844Y-98133999D01*
X154839372Y-98127598D01*
X154839376Y-98127597D01*
X154974091Y-98077351D01*
X154992270Y-98063742D01*
X155057733Y-98039323D01*
X155126007Y-98054173D01*
X155140891Y-98063738D01*
X155140897Y-98063743D01*
X155159669Y-98077796D01*
X155159670Y-98077797D01*
X155234155Y-98105577D01*
X155294517Y-98128091D01*
X155354127Y-98134500D01*
X156049872Y-98134499D01*
X156109483Y-98128091D01*
X156244331Y-98077796D01*
X156263105Y-98063741D01*
X156328565Y-98039323D01*
X156396838Y-98054172D01*
X156411728Y-98063741D01*
X156429908Y-98077351D01*
X156564623Y-98127597D01*
X156564627Y-98127598D01*
X156624155Y-98133999D01*
X156624172Y-98134000D01*
X156722000Y-98134000D01*
X156722000Y-96808000D01*
X156741685Y-96740961D01*
X156794489Y-96695206D01*
X156846000Y-96684000D01*
X157098000Y-96684000D01*
X157165039Y-96703685D01*
X157210794Y-96756489D01*
X157222000Y-96808000D01*
X157222000Y-98134000D01*
X157319828Y-98134000D01*
X157319844Y-98133999D01*
X157379372Y-98127598D01*
X157379376Y-98127597D01*
X157514091Y-98077351D01*
X157532270Y-98063742D01*
X157597733Y-98039323D01*
X157666007Y-98054173D01*
X157680891Y-98063738D01*
X157680897Y-98063743D01*
X157699669Y-98077796D01*
X157699670Y-98077797D01*
X157774155Y-98105577D01*
X157834517Y-98128091D01*
X157894127Y-98134500D01*
X158589872Y-98134499D01*
X158649483Y-98128091D01*
X158784331Y-98077796D01*
X158899546Y-97991546D01*
X158985796Y-97876331D01*
X158985797Y-97876327D01*
X158988518Y-97872693D01*
X159044452Y-97830822D01*
X159114143Y-97825838D01*
X159175466Y-97859323D01*
X159193324Y-97881907D01*
X159278288Y-98019656D01*
X159402344Y-98143712D01*
X159551666Y-98235814D01*
X159718203Y-98290999D01*
X159820991Y-98301500D01*
X160571008Y-98301499D01*
X160571016Y-98301498D01*
X160571019Y-98301498D01*
X160627302Y-98295748D01*
X160673797Y-98290999D01*
X160840334Y-98235814D01*
X160989656Y-98143712D01*
X161113712Y-98019656D01*
X161205814Y-97870334D01*
X161260999Y-97703797D01*
X161271500Y-97601009D01*
X161271500Y-97151000D01*
X162071001Y-97151000D01*
X162071001Y-97600986D01*
X162081494Y-97703697D01*
X162136641Y-97870119D01*
X162136643Y-97870124D01*
X162228684Y-98019345D01*
X162352654Y-98143315D01*
X162501875Y-98235356D01*
X162501880Y-98235358D01*
X162668302Y-98290505D01*
X162668309Y-98290506D01*
X162771019Y-98300999D01*
X162895999Y-98300999D01*
X162896000Y-98300998D01*
X162896000Y-97151000D01*
X163396000Y-97151000D01*
X163396000Y-98300999D01*
X163520972Y-98300999D01*
X163520986Y-98300998D01*
X163623697Y-98290505D01*
X163790119Y-98235358D01*
X163790124Y-98235356D01*
X163939345Y-98143315D01*
X164063315Y-98019345D01*
X164155356Y-97870124D01*
X164155358Y-97870119D01*
X164210505Y-97703697D01*
X164210506Y-97703690D01*
X164220999Y-97600986D01*
X164221000Y-97600973D01*
X164221000Y-97151000D01*
X163396000Y-97151000D01*
X162896000Y-97151000D01*
X162071001Y-97151000D01*
X161271500Y-97151000D01*
X161271499Y-96651000D01*
X162071000Y-96651000D01*
X162896000Y-96651000D01*
X162896000Y-95501000D01*
X163396000Y-95501000D01*
X163396000Y-96651000D01*
X164220999Y-96651000D01*
X164220999Y-96201028D01*
X164220998Y-96201013D01*
X164210505Y-96098302D01*
X164155358Y-95931880D01*
X164155356Y-95931875D01*
X164063315Y-95782654D01*
X163939345Y-95658684D01*
X163790124Y-95566643D01*
X163790119Y-95566641D01*
X163623697Y-95511494D01*
X163623690Y-95511493D01*
X163520986Y-95501000D01*
X163396000Y-95501000D01*
X162896000Y-95501000D01*
X162771027Y-95501000D01*
X162771012Y-95501001D01*
X162668302Y-95511494D01*
X162501880Y-95566641D01*
X162501875Y-95566643D01*
X162352654Y-95658684D01*
X162228684Y-95782654D01*
X162136643Y-95931875D01*
X162136641Y-95931880D01*
X162081494Y-96098302D01*
X162081493Y-96098309D01*
X162071000Y-96201013D01*
X162071000Y-96651000D01*
X161271499Y-96651000D01*
X161271499Y-96200992D01*
X161260999Y-96098203D01*
X161216674Y-95964441D01*
X161214273Y-95894616D01*
X161229750Y-95858895D01*
X161257215Y-95815710D01*
X161257218Y-95815703D01*
X161257226Y-95815692D01*
X161283782Y-95768539D01*
X161328571Y-95631807D01*
X161345367Y-95536115D01*
X161352849Y-95437305D01*
X161333529Y-94582335D01*
X161319857Y-93977301D01*
X161338022Y-93909834D01*
X161389778Y-93862898D01*
X161443825Y-93850500D01*
X163199998Y-93850500D01*
X163200000Y-93850500D01*
X163298618Y-93840787D01*
X163393906Y-93821833D01*
X163446335Y-93808451D01*
X163576126Y-93746356D01*
X163656908Y-93692380D01*
X163700233Y-93659947D01*
X163796380Y-93552908D01*
X163850356Y-93472126D01*
X163877966Y-93425591D01*
X163925833Y-93289906D01*
X163944787Y-93194618D01*
X163954500Y-93096000D01*
X163954500Y-85974000D01*
X163944787Y-85875382D01*
X163925833Y-85780094D01*
X163912451Y-85727665D01*
X163850356Y-85597874D01*
X163796380Y-85517092D01*
X163763947Y-85473767D01*
X163656908Y-85377620D01*
X163616654Y-85350723D01*
X163576130Y-85323646D01*
X163576125Y-85323643D01*
X163529598Y-85296037D01*
X163529596Y-85296036D01*
X163529591Y-85296034D01*
X163396347Y-85249028D01*
X163393904Y-85248166D01*
X163298616Y-85229212D01*
X163219424Y-85221413D01*
X163200000Y-85219500D01*
X163199998Y-85219500D01*
X157603500Y-85219500D01*
X157536461Y-85199815D01*
X157490706Y-85147011D01*
X157479500Y-85095500D01*
X157479500Y-84921920D01*
X157479726Y-84914432D01*
X157483358Y-84854394D01*
X157472514Y-84795221D01*
X157471387Y-84787815D01*
X157468507Y-84764094D01*
X157464140Y-84728128D01*
X157460548Y-84718656D01*
X157454521Y-84697034D01*
X157452695Y-84687071D01*
X157452693Y-84687063D01*
X157428009Y-84632221D01*
X157425154Y-84625331D01*
X157403818Y-84569070D01*
X157398062Y-84560731D01*
X157387034Y-84541177D01*
X157382880Y-84531946D01*
X157358705Y-84501089D01*
X157345780Y-84484591D01*
X157341352Y-84478573D01*
X157326993Y-84457771D01*
X157307183Y-84429071D01*
X157262153Y-84389178D01*
X157256715Y-84384058D01*
X156786657Y-83914000D01*
X159636001Y-83914000D01*
X159636001Y-84038986D01*
X159646494Y-84141697D01*
X159701641Y-84308119D01*
X159701643Y-84308124D01*
X159793684Y-84457345D01*
X159917654Y-84581315D01*
X160066875Y-84673356D01*
X160066880Y-84673358D01*
X160233302Y-84728505D01*
X160233309Y-84728506D01*
X160336019Y-84738999D01*
X160785999Y-84738999D01*
X160786000Y-84738998D01*
X160786000Y-83914000D01*
X161286000Y-83914000D01*
X161286000Y-84738999D01*
X161735972Y-84738999D01*
X161735986Y-84738998D01*
X161838697Y-84728505D01*
X162005119Y-84673358D01*
X162005124Y-84673356D01*
X162154345Y-84581315D01*
X162278315Y-84457345D01*
X162370356Y-84308124D01*
X162370358Y-84308119D01*
X162425505Y-84141697D01*
X162425506Y-84141690D01*
X162435999Y-84038986D01*
X162436000Y-84038973D01*
X162436000Y-83914000D01*
X161286000Y-83914000D01*
X160786000Y-83914000D01*
X159636001Y-83914000D01*
X156786657Y-83914000D01*
X156286657Y-83414000D01*
X159636000Y-83414000D01*
X160786000Y-83414000D01*
X160786000Y-82589000D01*
X161286000Y-82589000D01*
X161286000Y-83414000D01*
X162435999Y-83414000D01*
X162435999Y-83289028D01*
X162435998Y-83289013D01*
X162425505Y-83186302D01*
X162370358Y-83019880D01*
X162370356Y-83019875D01*
X162278315Y-82870654D01*
X162154345Y-82746684D01*
X162005124Y-82654643D01*
X162005119Y-82654641D01*
X161838697Y-82599494D01*
X161838690Y-82599493D01*
X161735986Y-82589000D01*
X161286000Y-82589000D01*
X160786000Y-82589000D01*
X160336028Y-82589000D01*
X160336012Y-82589001D01*
X160233302Y-82599494D01*
X160066880Y-82654641D01*
X160066875Y-82654643D01*
X159917654Y-82746684D01*
X159793684Y-82870654D01*
X159701643Y-83019875D01*
X159701641Y-83019880D01*
X159646494Y-83186302D01*
X159646493Y-83186309D01*
X159636000Y-83289013D01*
X159636000Y-83414000D01*
X156286657Y-83414000D01*
X155579940Y-82707283D01*
X155574805Y-82701828D01*
X155534929Y-82656816D01*
X155534924Y-82656812D01*
X155485438Y-82622655D01*
X155479403Y-82618215D01*
X155432060Y-82581124D01*
X155432055Y-82581120D01*
X155422813Y-82576961D01*
X155403266Y-82565936D01*
X155401657Y-82564826D01*
X155394930Y-82560182D01*
X155338694Y-82538854D01*
X155331790Y-82535994D01*
X155276932Y-82511305D01*
X155276930Y-82511304D01*
X155266946Y-82509474D01*
X155245343Y-82503451D01*
X155235874Y-82499860D01*
X155235871Y-82499859D01*
X155176171Y-82492610D01*
X155168770Y-82491483D01*
X155109609Y-82480642D01*
X155109603Y-82480642D01*
X155049567Y-82484274D01*
X155042079Y-82484500D01*
X120674921Y-82484500D01*
X120667433Y-82484274D01*
X120607396Y-82480642D01*
X120607388Y-82480642D01*
X120548227Y-82491483D01*
X120540827Y-82492610D01*
X120481128Y-82499860D01*
X120481121Y-82499861D01*
X120471647Y-82503454D01*
X120450049Y-82509475D01*
X120440068Y-82511305D01*
X120440063Y-82511306D01*
X120385212Y-82535992D01*
X120378296Y-82538857D01*
X120322070Y-82560181D01*
X120322066Y-82560184D01*
X120313723Y-82565942D01*
X120294188Y-82576960D01*
X120284948Y-82581119D01*
X120284938Y-82581124D01*
X120237597Y-82618213D01*
X120231569Y-82622649D01*
X120182068Y-82656819D01*
X120142183Y-82701838D01*
X120137051Y-82707290D01*
X118140290Y-84704051D01*
X118134838Y-84709183D01*
X118089819Y-84749068D01*
X118055649Y-84798569D01*
X118051213Y-84804597D01*
X118014124Y-84851938D01*
X118014119Y-84851948D01*
X118009960Y-84861188D01*
X117998942Y-84880723D01*
X117993187Y-84889061D01*
X117993179Y-84889076D01*
X117971853Y-84945305D01*
X117968989Y-84952220D01*
X117944305Y-85007068D01*
X117942477Y-85017042D01*
X117936453Y-85038653D01*
X117932860Y-85048127D01*
X117932860Y-85048128D01*
X117925610Y-85107827D01*
X117924483Y-85115227D01*
X117913642Y-85174389D01*
X117913642Y-85174395D01*
X117917274Y-85234432D01*
X117917500Y-85241920D01*
X117917500Y-86703845D01*
X117897815Y-86770884D01*
X117845011Y-86816639D01*
X117832505Y-86821551D01*
X117673666Y-86874186D01*
X117673663Y-86874187D01*
X117524342Y-86966289D01*
X117400287Y-87090344D01*
X117364309Y-87148674D01*
X117312361Y-87195398D01*
X117243398Y-87206619D01*
X117193676Y-87189116D01*
X117174338Y-87177188D01*
X117174335Y-87177186D01*
X117174334Y-87177186D01*
X117007797Y-87122001D01*
X117007795Y-87122000D01*
X116905010Y-87111500D01*
X115504998Y-87111500D01*
X115504981Y-87111501D01*
X115402203Y-87122000D01*
X115402200Y-87122001D01*
X115235668Y-87177185D01*
X115235663Y-87177187D01*
X115086342Y-87269289D01*
X114962289Y-87393342D01*
X114870187Y-87542663D01*
X114870184Y-87542670D01*
X114868582Y-87547507D01*
X114828808Y-87604951D01*
X114764292Y-87631772D01*
X114750877Y-87632500D01*
X102091139Y-87632500D01*
X102004648Y-87639956D01*
X102004642Y-87639956D01*
X102004639Y-87639957D01*
X102004636Y-87639957D01*
X102004632Y-87639958D01*
X101920664Y-87654543D01*
X101879820Y-87663392D01*
X101747152Y-87719092D01*
X101747149Y-87719094D01*
X101677634Y-87760792D01*
X101663839Y-87769068D01*
X101663832Y-87769072D01*
X101663825Y-87769077D01*
X101618993Y-87799345D01*
X101618988Y-87799349D01*
X101517743Y-87901571D01*
X101459882Y-87979646D01*
X101430047Y-88024766D01*
X101375628Y-88157952D01*
X101375628Y-88157953D01*
X101375627Y-88157956D01*
X101365779Y-88197327D01*
X101352054Y-88252199D01*
X101337546Y-88350222D01*
X101337545Y-88350230D01*
X101283290Y-89462461D01*
X101107838Y-93059239D01*
X101107838Y-93059251D01*
X101107386Y-93071564D01*
X101107091Y-93083666D01*
X100000500Y-93083666D01*
X100000500Y-82124500D01*
X100020185Y-82057461D01*
X100072989Y-82011706D01*
X100124500Y-82000500D01*
X164875500Y-82000500D01*
X164942539Y-82020185D01*
G37*
%TD.AperFunction*%
%TD*%
%TA.AperFunction,Conductor*%
%TO.N,/+Bat*%
G36*
X163295288Y-85743954D02*
G01*
X163376070Y-85797930D01*
X163430046Y-85878712D01*
X163449000Y-85974000D01*
X163449000Y-93096000D01*
X163430046Y-93191288D01*
X163376070Y-93272070D01*
X163295288Y-93326046D01*
X163200000Y-93345000D01*
X161122117Y-93345000D01*
X161026829Y-93326046D01*
X160983782Y-93303037D01*
X160940106Y-93273854D01*
X160940085Y-93273841D01*
X160893554Y-93246233D01*
X160757871Y-93198367D01*
X160757867Y-93198366D01*
X160662578Y-93179412D01*
X160563964Y-93169700D01*
X157575599Y-93169700D01*
X157480311Y-93150746D01*
X157399529Y-93096770D01*
X157345553Y-93015988D01*
X157326599Y-92920700D01*
X157345553Y-92825412D01*
X157399529Y-92744630D01*
X157480311Y-92690654D01*
X157488564Y-92687406D01*
X157514331Y-92677796D01*
X157629546Y-92591546D01*
X157715796Y-92476331D01*
X157766091Y-92341483D01*
X157772500Y-92281873D01*
X157772499Y-90786128D01*
X157766091Y-90726517D01*
X157715796Y-90591669D01*
X157629546Y-90476454D01*
X157514331Y-90390204D01*
X157379486Y-90339910D01*
X157379481Y-90339908D01*
X157319873Y-90333500D01*
X156624134Y-90333500D01*
X156624130Y-90333500D01*
X156624128Y-90333501D01*
X156611314Y-90334878D01*
X156564519Y-90339908D01*
X156564511Y-90339910D01*
X156424014Y-90392312D01*
X156328110Y-90407852D01*
X156249985Y-90392312D01*
X156109483Y-90339908D01*
X156049873Y-90333500D01*
X155354134Y-90333500D01*
X155354130Y-90333500D01*
X155354128Y-90333501D01*
X155341314Y-90334878D01*
X155294519Y-90339908D01*
X155294515Y-90339909D01*
X155159670Y-90390203D01*
X155044455Y-90476453D01*
X155044453Y-90476455D01*
X154958204Y-90591669D01*
X154907908Y-90726518D01*
X154901500Y-90786123D01*
X154901500Y-91781703D01*
X154882546Y-91876991D01*
X154828570Y-91957772D01*
X154722774Y-92063569D01*
X154641993Y-92117546D01*
X154546705Y-92136500D01*
X153792000Y-92136500D01*
X153696712Y-92117546D01*
X153615930Y-92063570D01*
X153561954Y-91982788D01*
X153543000Y-91887500D01*
X153543000Y-90374797D01*
X153561954Y-90279509D01*
X153615930Y-90198728D01*
X154504777Y-89309880D01*
X154585559Y-89255903D01*
X154680847Y-89236949D01*
X154776135Y-89255903D01*
X154856916Y-89309879D01*
X154905465Y-89378489D01*
X154919643Y-89408125D01*
X154919644Y-89408126D01*
X154973620Y-89488908D01*
X155006053Y-89532233D01*
X155113092Y-89628380D01*
X155139434Y-89645980D01*
X155193849Y-89682340D01*
X155193863Y-89682349D01*
X155193874Y-89682356D01*
X155240409Y-89709966D01*
X155376094Y-89757833D01*
X155471382Y-89776787D01*
X155570000Y-89786500D01*
X155570003Y-89786500D01*
X156087997Y-89786500D01*
X156088000Y-89786500D01*
X156186618Y-89776787D01*
X156281906Y-89757833D01*
X156334335Y-89744451D01*
X156464126Y-89682356D01*
X156544908Y-89628380D01*
X156588233Y-89595947D01*
X156684380Y-89488908D01*
X156738356Y-89408126D01*
X156765966Y-89361591D01*
X156813833Y-89225906D01*
X156832787Y-89130618D01*
X156842500Y-89032000D01*
X156842500Y-87549437D01*
X156838770Y-87488141D01*
X156831448Y-87428203D01*
X156829207Y-87412036D01*
X156787149Y-87274440D01*
X156745816Y-87186517D01*
X156719126Y-87141750D01*
X156686610Y-87050197D01*
X156684000Y-87014240D01*
X156684000Y-85999052D01*
X156702954Y-85903764D01*
X156705503Y-85897828D01*
X156707459Y-85893430D01*
X156707466Y-85893418D01*
X156708259Y-85891167D01*
X156709086Y-85889774D01*
X156711492Y-85884368D01*
X156712126Y-85884650D01*
X156757831Y-85807613D01*
X156835606Y-85749387D01*
X156929742Y-85725357D01*
X156943078Y-85725000D01*
X163200000Y-85725000D01*
X163295288Y-85743954D01*
G37*
%TD.AperFunction*%
%TD*%
%TA.AperFunction,Conductor*%
%TO.N,/+Vin*%
G36*
X160659252Y-93694154D02*
G01*
X160740034Y-93748130D01*
X160794010Y-93828912D01*
X160812900Y-93918575D01*
X160847478Y-95448725D01*
X160830682Y-95544417D01*
X160778544Y-95626397D01*
X160699003Y-95682185D01*
X160604167Y-95703286D01*
X160598078Y-95702990D01*
X160596000Y-95704834D01*
X160596000Y-97052000D01*
X160577046Y-97147288D01*
X160523070Y-97228070D01*
X160442288Y-97282046D01*
X160347000Y-97301000D01*
X160045000Y-97301000D01*
X159949712Y-97282046D01*
X159868930Y-97228070D01*
X159814954Y-97147288D01*
X159796000Y-97052000D01*
X159796000Y-95704834D01*
X159795999Y-95704834D01*
X159739556Y-95711613D01*
X159739554Y-95711613D01*
X159598905Y-95767078D01*
X159478437Y-95858433D01*
X159478433Y-95858437D01*
X159387078Y-95978905D01*
X159331615Y-96119550D01*
X159331612Y-96119561D01*
X159329331Y-96138562D01*
X159299150Y-96230910D01*
X159235927Y-96304679D01*
X159149285Y-96348638D01*
X159052417Y-96356094D01*
X158960069Y-96325913D01*
X158886300Y-96262690D01*
X158842341Y-96176048D01*
X158841841Y-96174236D01*
X158839091Y-96164128D01*
X158793787Y-96061523D01*
X158714476Y-95982212D01*
X158611873Y-95936909D01*
X158586796Y-95934000D01*
X158542001Y-95934000D01*
X158542000Y-95934001D01*
X158542000Y-96985000D01*
X158523046Y-97080288D01*
X158469070Y-97161070D01*
X158388288Y-97215046D01*
X158293000Y-97234000D01*
X158191000Y-97234000D01*
X158095712Y-97215046D01*
X158014930Y-97161070D01*
X157960954Y-97080288D01*
X157942000Y-96985000D01*
X157942000Y-95934000D01*
X157941999Y-95933999D01*
X157897217Y-95934000D01*
X157897202Y-95934001D01*
X157872127Y-95936909D01*
X157872123Y-95936910D01*
X157769520Y-95982213D01*
X157750486Y-95995253D01*
X157748168Y-95991869D01*
X157702641Y-96022289D01*
X157607353Y-96041243D01*
X157512065Y-96022289D01*
X157466053Y-95991545D01*
X157463801Y-95994834D01*
X157444767Y-95981795D01*
X157366747Y-95947346D01*
X157341991Y-95936415D01*
X157341990Y-95936414D01*
X157341989Y-95936414D01*
X157316866Y-95933500D01*
X156627144Y-95933500D01*
X156627130Y-95933501D01*
X156602006Y-95936415D01*
X156478129Y-95991113D01*
X156477653Y-95990035D01*
X156413757Y-96017370D01*
X156316609Y-96018489D01*
X156226427Y-95982346D01*
X156156941Y-95914443D01*
X156143822Y-95893055D01*
X156137257Y-95881031D01*
X156137507Y-95880894D01*
X156137245Y-95880453D01*
X156137005Y-95880608D01*
X156127378Y-95865629D01*
X156127377Y-95865628D01*
X156127377Y-95865627D01*
X156097775Y-95831464D01*
X156086623Y-95817625D01*
X156081223Y-95810411D01*
X156081222Y-95810410D01*
X156081220Y-95810407D01*
X156074826Y-95804013D01*
X156062729Y-95791019D01*
X156033128Y-95756857D01*
X156033126Y-95756856D01*
X156033124Y-95756853D01*
X156019668Y-95745193D01*
X156019854Y-95744977D01*
X155998922Y-95728109D01*
X155731886Y-95461072D01*
X155715022Y-95440146D01*
X155714807Y-95440333D01*
X155703144Y-95426874D01*
X155703143Y-95426872D01*
X155668980Y-95397269D01*
X155655994Y-95385180D01*
X155649593Y-95378779D01*
X155642349Y-95373356D01*
X155628523Y-95362214D01*
X155594373Y-95332623D01*
X155594371Y-95332622D01*
X155594370Y-95332621D01*
X155579391Y-95322994D01*
X155579545Y-95322753D01*
X155579097Y-95322488D01*
X155578961Y-95322739D01*
X155563333Y-95314206D01*
X155563331Y-95314204D01*
X155520967Y-95298403D01*
X155504560Y-95291606D01*
X155463458Y-95272835D01*
X155446372Y-95267818D01*
X155446451Y-95267546D01*
X155445939Y-95267415D01*
X155445879Y-95267693D01*
X155428481Y-95263908D01*
X155383405Y-95260684D01*
X155365747Y-95258786D01*
X155356799Y-95257500D01*
X155356797Y-95257500D01*
X155347767Y-95257500D01*
X155330001Y-95256865D01*
X155284931Y-95253641D01*
X155284929Y-95253641D01*
X155284927Y-95253641D01*
X155284925Y-95253641D01*
X155267162Y-95254912D01*
X155267141Y-95254626D01*
X155240417Y-95257500D01*
X153877583Y-95257500D01*
X153850858Y-95254626D01*
X153850838Y-95254912D01*
X153833075Y-95253641D01*
X153833073Y-95253641D01*
X153833070Y-95253641D01*
X153833068Y-95253641D01*
X153787999Y-95256865D01*
X153770233Y-95257500D01*
X153761194Y-95257500D01*
X153752240Y-95258787D01*
X153734590Y-95260684D01*
X153689518Y-95263908D01*
X153672120Y-95267693D01*
X153672059Y-95267417D01*
X153671548Y-95267547D01*
X153671628Y-95267818D01*
X153640154Y-95277060D01*
X153543386Y-95285721D01*
X153450670Y-95256690D01*
X153376120Y-95194389D01*
X153331087Y-95108301D01*
X153321000Y-95038147D01*
X153321000Y-94933942D01*
X153310385Y-94845554D01*
X153310384Y-94845550D01*
X153254921Y-94704905D01*
X153163566Y-94584437D01*
X153163562Y-94584433D01*
X153043094Y-94493078D01*
X152902449Y-94437615D01*
X152902445Y-94437614D01*
X152814057Y-94427000D01*
X152546001Y-94427000D01*
X152546000Y-94427001D01*
X152546000Y-95528000D01*
X152527046Y-95623288D01*
X152473070Y-95704070D01*
X152392288Y-95758046D01*
X152297000Y-95777000D01*
X150971001Y-95777000D01*
X150971000Y-95777001D01*
X150971000Y-95820057D01*
X150981614Y-95908445D01*
X150981615Y-95908449D01*
X151037078Y-96049094D01*
X151128433Y-96169562D01*
X151128437Y-96169566D01*
X151248905Y-96260921D01*
X151389550Y-96316384D01*
X151389554Y-96316385D01*
X151410170Y-96318861D01*
X151502518Y-96349041D01*
X151576288Y-96412264D01*
X151620247Y-96498905D01*
X151627705Y-96595774D01*
X151597525Y-96688122D01*
X151578886Y-96716539D01*
X151541641Y-96765654D01*
X151536929Y-96774035D01*
X151473706Y-96847805D01*
X151387066Y-96891766D01*
X151319884Y-96901000D01*
X150432116Y-96901000D01*
X150336828Y-96882046D01*
X150256046Y-96828070D01*
X150215071Y-96774035D01*
X150210361Y-96765658D01*
X150120493Y-96647150D01*
X150118922Y-96645078D01*
X150053905Y-96595774D01*
X149998340Y-96553637D01*
X149857568Y-96498124D01*
X149857564Y-96498123D01*
X149769102Y-96487500D01*
X148882898Y-96487500D01*
X148816551Y-96495467D01*
X148794435Y-96498123D01*
X148794431Y-96498124D01*
X148653659Y-96553637D01*
X148533080Y-96645076D01*
X148533076Y-96645080D01*
X148441638Y-96765658D01*
X148436929Y-96774035D01*
X148373706Y-96847805D01*
X148287066Y-96891766D01*
X148219884Y-96901000D01*
X147320968Y-96901000D01*
X147318993Y-96900992D01*
X147314327Y-96900954D01*
X146708022Y-96896142D01*
X146612888Y-96876432D01*
X146532537Y-96821816D01*
X146479204Y-96740609D01*
X146460999Y-96647150D01*
X146460999Y-96285001D01*
X146460998Y-96285000D01*
X145010000Y-96285000D01*
X144914712Y-96266046D01*
X144833930Y-96212070D01*
X144779954Y-96131288D01*
X144761000Y-96036000D01*
X144761000Y-95484999D01*
X145561000Y-95484999D01*
X145561001Y-95485000D01*
X146460998Y-95485000D01*
X146460999Y-95484999D01*
X146460999Y-94976999D01*
X150971000Y-94976999D01*
X150971001Y-94977000D01*
X151745999Y-94977000D01*
X151746000Y-94976999D01*
X151746000Y-94427001D01*
X151745999Y-94427000D01*
X151477943Y-94427000D01*
X151389554Y-94437614D01*
X151389550Y-94437615D01*
X151248905Y-94493078D01*
X151128437Y-94584433D01*
X151128433Y-94584437D01*
X151037078Y-94704905D01*
X150981615Y-94845550D01*
X150981614Y-94845554D01*
X150971000Y-94933942D01*
X150971000Y-94976999D01*
X146460999Y-94976999D01*
X146460999Y-94840214D01*
X146460998Y-94840204D01*
X146458090Y-94815127D01*
X146458089Y-94815123D01*
X146412787Y-94712523D01*
X146333476Y-94633212D01*
X146230873Y-94587909D01*
X146205796Y-94585000D01*
X145561001Y-94585000D01*
X145561000Y-94585001D01*
X145561000Y-95484999D01*
X144761000Y-95484999D01*
X144761000Y-94585001D01*
X144760999Y-94585000D01*
X144394000Y-94585000D01*
X144298712Y-94566046D01*
X144217930Y-94512070D01*
X144163954Y-94431288D01*
X144145000Y-94336000D01*
X144145000Y-93924200D01*
X144163954Y-93828912D01*
X144217930Y-93748130D01*
X144298712Y-93694154D01*
X144394000Y-93675200D01*
X160563964Y-93675200D01*
X160659252Y-93694154D01*
G37*
%TD.AperFunction*%
%TD*%
M02*
